<svg width="45" height="44" viewBox="0 0 45 44" xmlns="http://www.w3.org/2000/svg">
    <path d="M0 27C0 26.5725 0.2475 26.19 0.585 26.01L9.495 21.015L10.125 20.8125L10.755 21.015L19.665 26.01C20.0025 26.19 20.25 26.5725 20.25 27V37.125C20.25 37.5525 20.0025 37.935 19.665 38.115L10.755 43.11L10.125 43.3125L9.495 43.11L0.585 38.115C0.2475 37.935 0 37.5525 0 37.125L0 27ZM24.75 27C24.75 26.5725 24.9975 26.19 25.335 26.01L34.245 21.015L34.875 20.8125L35.505 21.015L44.415 26.01C44.7525 26.19 45 26.5725 45 27V37.125C45 37.5525 44.7525 37.935 44.415 38.115L35.505 43.11L34.875 43.3125L34.245 43.11L25.335 38.115C24.9975 37.935 24.75 37.5525 24.75 37.125V27ZM12.375 6.1875C12.375 5.76 12.6225 5.3775 12.96 5.1975L21.87 0.2025L22.5 0L23.13 0.2025L32.04 5.1975C32.3775 5.3775 32.625 5.76 32.625 6.1875V16.3125C32.625 16.74 32.3775 17.1225 32.04 17.3025L23.13 22.2975L22.5 22.5L21.87 22.2975L12.96 17.3025C12.6225 17.1225 12.375 16.74 12.375 16.3125V6.1875Z"
          />
</svg>
