<svg width="32" height="32" viewBox="0 0 32 32" xmlns="http://www.w3.org/2000/svg">
    <path d="M24.4125 11.95C24.9375 12.0917 25.4167 12.3083 25.85 12.6C26.2833 12.8917 26.6625 13.2458 26.9875 13.6625C27.3125 14.0792 27.5625 14.5375 27.7375 15.0375C27.9125 15.5375 28 16.0583 28 16.6C28 16.875 27.975 17.1458 27.925 17.4125C27.875 17.6792 27.8 17.9417 27.7 18.2H25.9625C26.1042 17.9583 26.2125 17.7042 26.2875 17.4375C26.3625 17.1708 26.4 16.8917 26.4 16.6C26.4 16.1417 26.3167 15.7208 26.15 15.3375C25.9833 14.9542 25.7458 14.6167 25.4375 14.325C25.1292 14.0333 24.7833 13.8083 24.4 13.65C24.0167 13.4917 23.5917 13.4083 23.125 13.4C23.025 12.7167 22.8125 12.0833 22.4875 11.5C22.1625 10.9167 21.7542 10.4083 21.2625 9.975C20.7708 9.54167 20.2125 9.20417 19.5875 8.9625C18.9625 8.72083 18.3 8.6 17.6 8.6C16.9583 8.6 16.35 8.70417 15.775 8.9125C15.2 9.12083 14.6708 9.40833 14.1875 9.775C13.7042 10.1417 13.2958 10.5833 12.9625 11.1C12.6292 11.6167 12.375 12.1792 12.2 12.7875C11.8333 12.4708 11.4292 12.2292 10.9875 12.0625C10.5458 11.8958 10.0833 11.8083 9.6 11.8C9.05 11.8 8.53333 11.9042 8.05 12.1125C7.56667 12.3208 7.14167 12.6042 6.775 12.9625C6.40833 13.3208 6.12083 13.7458 5.9125 14.2375C5.70417 14.7292 5.6 15.25 5.6 15.8C5.6 16.2333 5.67083 16.6542 5.8125 17.0625C5.95417 17.4708 6.15833 17.85 6.425 18.2H4.5625C4.37917 17.825 4.24167 17.4375 4.15 17.0375C4.05833 16.6375 4.00833 16.225 4 15.8C4 15.025 4.14583 14.3 4.4375 13.625C4.72917 12.95 5.12917 12.3583 5.6375 11.85C6.14583 11.3417 6.7375 10.9417 7.4125 10.65C8.0875 10.3583 8.81667 10.2083 9.6 10.2C10.2167 10.2 10.8292 10.3042 11.4375 10.5125C11.7625 9.97083 12.1458 9.48333 12.5875 9.05C13.0292 8.61667 13.5167 8.25 14.05 7.95C14.5833 7.65 15.15 7.41667 15.75 7.25C16.35 7.08333 16.9667 7 17.6 7C18.375 7 19.1167 7.12083 19.825 7.3625C20.5333 7.60417 21.1917 7.94167 21.8 8.375C22.4083 8.80833 22.9333 9.32917 23.375 9.9375C23.8167 10.5458 24.1625 11.2167 24.4125 11.95ZM11.2 18.2C10.9833 18.2 10.7958 18.1208 10.6375 17.9625C10.4792 17.8042 10.4 17.6167 10.4 17.4C10.4 17.1833 10.4792 16.9958 10.6375 16.8375C10.7958 16.6792 10.9833 16.6 11.2 16.6H22.4C22.6167 16.6 22.8042 16.6792 22.9625 16.8375C23.1208 16.9958 23.2 17.1833 23.2 17.4C23.2 17.6167 23.1208 17.8042 22.9625 17.9625C22.8042 18.1208 22.6167 18.2 22.4 18.2H11.2ZM25.6 19.8C25.8167 19.8 26.0042 19.8792 26.1625 20.0375C26.3208 20.1958 26.4 20.3833 26.4 20.6C26.4 20.8167 26.3208 21.0042 26.1625 21.1625C26.0042 21.3208 25.8167 21.4 25.6 21.4H6.4C6.18333 21.4 5.99583 21.3208 5.8375 21.1625C5.67917 21.0042 5.6 20.8167 5.6 20.6C5.6 20.3833 5.67917 20.1958 5.8375 20.0375C5.99583 19.8792 6.18333 19.8 6.4 19.8H25.6ZM20.8 23C21.0167 23 21.2042 23.0792 21.3625 23.2375C21.5208 23.3958 21.6 23.5833 21.6 23.8C21.6 24.0167 21.5208 24.2042 21.3625 24.3625C21.2042 24.5208 21.0167 24.6 20.8 24.6H9.6C9.38333 24.6 9.19583 24.5208 9.0375 24.3625C8.87917 24.2042 8.8 24.0167 8.8 23.8C8.8 23.5833 8.87917 23.3958 9.0375 23.2375C9.19583 23.0792 9.38333 23 9.6 23H20.8Z"
         />
</svg>
