<svg width="22" height="16" viewBox="0 0 22 16" fill="none" xmlns="http://www.w3.org/2000/svg">
    <path d="M4.35915 5.63794L4.65343 5.57212L4.7325 5.28111C4.77987 5.10679 4.83287 4.93693 4.89145 4.77148L4.42012 4.60461C4.54953 4.23909 4.70496 3.89179 4.88642 3.56271L5.32427 3.80414C5.49514 3.49426 5.6908 3.20211 5.91137 2.92739L5.52149 2.61435C5.75753 2.32038 6.01994 2.04487 6.30874 1.78783L6.64116 2.16132C6.77213 2.04475 6.90923 1.932 7.05254 1.82308C7.19579 1.71421 7.34104 1.61227 7.48829 1.51718L7.21704 1.09715C7.5415 0.887629 7.87649 0.708115 8.22201 0.558611L8.42056 1.0175C8.74395 0.877566 9.07726 0.766065 9.4208 0.682927L9.30319 0.196955C9.66828 0.108602 10.0438 0.0499756 10.4297 0.0210745L10.4671 0.519679C10.642 0.506581 10.8196 0.5 11 0.5C11.1458 0.5 11.2895 0.504039 11.4312 0.512079L11.4595 0.0128831C11.7715 0.0305925 12.0755 0.0665595 12.3716 0.120784L12.2815 0.612604C12.5648 0.664494 12.8395 0.734235 13.1057 0.821672L13.2618 0.346636C13.5538 0.442541 13.8371 0.558348 14.1118 0.694056L13.8904 1.14233C14.1421 1.26672 14.3865 1.40944 14.6234 1.57072L14.9048 1.15737C15.1542 1.32712 15.3954 1.51553 15.6286 1.72261L15.2966 2.09645C15.4024 2.19047 15.5067 2.28883 15.6094 2.39155C15.7122 2.49426 15.8105 2.59853 15.9045 2.70437L16.2783 2.37233C16.4854 2.60543 16.6737 2.84665 16.8434 3.09599L16.4301 3.37732C16.5913 3.61423 16.734 3.85851 16.8584 4.11022L17.3067 3.88877C17.4423 4.16341 17.5581 4.44671 17.6539 4.73867L17.1789 4.89463C17.2663 5.1608 17.336 5.4354 17.3878 5.71865L17.8796 5.62868C17.9338 5.92471 17.9697 6.22868 17.9873 6.54058L17.4881 6.56877C17.4961 6.71039 17.5 6.85406 17.5 6.99983L17.4998 7.44536L17.9424 7.49667C18.068 7.51123 18.1904 7.53051 18.3097 7.5544L18.4079 7.06414C18.6838 7.1194 18.9474 7.19736 19.1988 7.29802L19.013 7.76219C19.2397 7.85296 19.4547 7.96447 19.6586 8.09688L19.9309 7.67757C20.1587 7.82549 20.374 7.99639 20.5769 8.19026L20.2316 8.55181C20.3194 8.63566 20.4049 8.72471 20.4883 8.81906C20.5716 8.91332 20.6494 9.00907 20.7219 9.10631L21.1228 8.80749C21.2901 9.03201 21.4335 9.26569 21.553 9.50854L21.1044 9.72925C21.2116 9.94736 21.297 10.1737 21.3606 10.4086L21.8432 10.2781C21.9138 10.5391 21.9606 10.8093 21.9835 11.0886L21.4852 11.1294C21.4951 11.2504 21.5001 11.3738 21.5 11.4997V11.5C21.5 11.6362 21.4943 11.7692 21.4829 11.899L21.981 11.9425C21.9547 12.2441 21.901 12.534 21.8198 12.8122L21.3398 12.6721C21.2665 12.9233 21.1679 13.1632 21.044 13.3924L21.4839 13.6302C21.3457 13.8858 21.1798 14.1295 20.9861 14.3613L20.6024 14.0408C20.519 14.1406 20.4294 14.2385 20.3334 14.3344C20.2376 14.4303 20.1397 14.5199 20.0399 14.6033L20.3605 14.987C20.1287 15.1806 19.8851 15.3465 19.6296 15.4846L19.3918 15.0448C19.1627 15.1686 18.9229 15.2671 18.6718 15.3403L18.8118 15.8203C18.5337 15.9014 18.2439 15.9551 17.9424 15.9813L17.8991 15.4831C17.7693 15.4944 17.6364 15.5001 17.5003 15.5H17.5H17V16H16V15.5H15V16H14V15.5H13V16H12V15.5H11V16H10V15.5H9V16H8V15.5H7V16H6V15.5H5.5C5.33139 15.5 5.16644 15.493 5.00508 15.479L4.96207 15.9772C4.59567 15.9456 4.24309 15.881 3.90435 15.7836L4.04257 15.3031C3.72906 15.2129 3.42906 15.0917 3.14202 14.9393L2.90756 15.3809C2.59546 15.2152 2.29734 15.0163 2.01319 14.784L2.3296 14.3969C2.20436 14.2945 2.08159 14.1847 1.96131 14.0673C1.84156 13.9503 1.7296 13.8308 1.62528 13.7086L1.24508 14.0334C1.00715 13.7548 0.803321 13.4614 0.633591 13.1533L1.07155 12.912C0.915891 12.6294 0.792162 12.3331 0.700187 12.0226L0.220768 12.1645C0.121121 11.828 0.0552074 11.4769 0.0230259 11.1112L0.521102 11.0674C0.507003 10.9071 0.499927 10.7431 0.500001 10.5752V10.575C0.500001 10.4295 0.505319 10.2864 0.515889 10.1456L0.0172914 10.1081C0.0410349 9.79191 0.0892307 9.48452 0.161879 9.18598L0.647702 9.3042C0.714887 9.02811 0.805007 8.76066 0.918112 8.50152L0.45986 8.30151C0.583195 8.01894 0.731338 7.74534 0.90429 7.48072L1.32283 7.75426C1.39994 7.63628 1.48266 7.51992 1.57107 7.40517C1.6588 7.2913 1.74953 7.18286 1.84323 7.07976L1.4732 6.74349C1.68521 6.5102 1.91252 6.30014 2.15514 6.11329L2.46022 6.50944C2.68164 6.33891 2.91718 6.18987 3.1672 6.06215L2.93973 5.61689C3.21161 5.478 3.49859 5.36203 3.80068 5.269L3.94785 5.74685C4.08122 5.70577 4.21829 5.66945 4.35915 5.63794Z"
          stroke="#5C6F68" stroke-dasharray="1 1"/>
</svg>
