<svg width="32" height="32" viewBox="0 0 32 32" xmlns="http://www.w3.org/2000/svg">
    <path d="M25.86 16.5C25.1369 15.6485 24.1116 15.1107 23 15C23 13.05 22.32 11.4 20.96 10.04C19.6 8.68 17.95 8 16 8C14.42 8 13 8.47 11.75 9.43C10.5 10.39 9.67 11.62 9.25 13.15C8 13.43 6.96 14.08 6.17 15.1C5.38 16.12 5 17.28 5 18.58C5 20.09 5.54 21.38 6.61 22.43C7.69 23.5 9 24 10.5 24H22.5C23.75 24 24.81 23.56 25.69 22.69C26.56 21.81 27 20.75 27 19.5C27 18.35 26.62 17.35 25.86 16.5ZM24.27 21.27C23.79 21.76 23.2 22 22.5 22H10.5C9.53 22 8.71 21.66 8.03 21C7.34 20.29 7 19.47 7 18.5C7 17.53 7.34 16.71 8.03 16.03C8.71 15.34 9.53 15 10.5 15H11C11 13.62 11.5 12.44 12.46 11.46C13.44 10.5 14.62 10 16 10C17.38 10 18.56 10.5 19.54 11.46C20.5 12.44 21 13.62 21 15V17H22.5C23.2 17 23.79 17.24 24.27 17.73C24.75 18.22 25 18.8 25 19.5C25 20.2 24.76 20.79 24.27 21.27Z"
          />
    <path d="M21.42 20.936C22.2 20.936 22.84 20.296 22.84 19.516C22.84 18.736 22.2 18.096 21.42 18.096C20.64 18.096 20 18.736 20 19.516C20 20.296 20.64 20.936 21.42 20.936Z"
          />
    <path d="M16 20.936C16.78 20.936 17.42 20.296 17.42 19.516C17.42 18.736 16.78 18.096 16 18.096C15.22 18.096 14.58 18.736 14.58 19.516C14.58 20.296 15.22 20.936 16 20.936Z"
          />
    <path d="M18.58 17.45C19.36 17.45 20 16.81 20 16.03C20 15.25 19.36 14.61 18.58 14.61C17.8 14.61 17.16 15.25 17.16 16.03C17.16 16.81 17.8 17.45 18.58 17.45Z"
          />
    <path d="M10.58 20.936C11.36 20.936 12 20.296 12 19.516C12 18.736 11.36 18.096 10.58 18.096C9.8 18.096 9.16 18.736 9.16 19.516C9.16 20.296 9.8 20.936 10.58 20.936Z"
          />
    <path d="M13.42 17.42C14.2 17.42 14.84 16.78 14.84 16C14.84 15.22 14.2 14.58 13.42 14.58C12.64 14.58 12 15.22 12 16C12 16.78 12.64 17.42 13.42 17.42Z"
          />
    <path d="M16 13.9083C16.78 13.9083 17.42 13.2683 17.42 12.4883C17.42 11.7083 16.78 11.0683 16 11.0683C15.22 11.0683 14.58 11.7083 14.58 12.4883C14.58 13.2683 15.22 13.9083 16 13.9083Z"
          />
</svg>
