<svg width="20" height="14" viewBox="0 0 20 14" xmlns="http://www.w3.org/2000/svg">
    <path d="M16.806 7.919C17.4258 7.79134 18.0064 7.51847 18.5002 7.12279C18.994 6.72712 19.3869 6.21993 19.6466 5.64291C19.9063 5.06588 20.0254 4.43547 19.9941 3.80347C19.9628 3.17147 19.782 2.55591 19.4666 2.00735C19.1512 1.45879 18.7101 0.992898 18.1797 0.647933C17.6492 0.302967 17.0444 0.088776 16.4151 0.0229541C15.7857 -0.0428679 15.1498 0.0415575 14.5594 0.269295C13.969 0.497033 13.4411 0.861585 13.019 1.333C12.845 1.53102 12.7562 1.78974 12.772 2.05288C12.7877 2.31602 12.9068 2.56229 13.1032 2.73813C13.2996 2.91396 13.5574 3.00514 13.8207 2.99182C14.084 2.9785 14.3314 2.86176 14.509 2.667C14.7191 2.43086 14.9825 2.24812 15.2772 2.13388C15.5719 2.01964 15.8896 1.97717 16.204 2.01C16.7149 2.06128 17.1866 2.30711 17.5212 2.69657C17.8559 3.08604 18.0279 3.5893 18.0017 4.10213C17.9755 4.61496 17.753 5.09805 17.3804 5.45136C17.0077 5.80466 16.5135 6.00111 16 6H1C0.734784 6 0.48043 6.10536 0.292893 6.2929C0.105357 6.48043 0 6.73479 0 7C0 7.26522 0.105357 7.51957 0.292893 7.70711C0.48043 7.89465 0.734784 8 1 8H16C16.276 8 16.546 7.972 16.806 7.919ZM3 5H8.516C8.93227 4.99718 9.34124 4.89046 9.70581 4.68952C10.0704 4.48858 10.379 4.19978 10.6037 3.84934C10.8283 3.4989 10.9619 3.0979 10.9924 2.68274C11.0228 2.26758 10.949 1.85139 10.7779 1.47194C10.6067 1.0925 10.3434 0.761807 10.012 0.509877C9.68065 0.257947 9.2916 0.0927538 8.88019 0.0292879C8.46878 -0.034178 8.04804 0.00609209 7.65614 0.146444C7.26423 0.286797 6.91358 0.522788 6.636 0.833004C6.4591 1.03072 6.36799 1.29062 6.38271 1.55551C6.39743 1.82041 6.51678 2.0686 6.7145 2.2455C6.91222 2.4224 7.17211 2.51351 7.43701 2.49879C7.7019 2.48407 7.9501 2.36472 8.127 2.167C8.18256 2.10478 8.2528 2.05744 8.33134 2.0293C8.40987 2.00117 8.49419 1.99313 8.57663 2.00591C8.65906 2.0187 8.73699 2.05192 8.80331 2.10252C8.86962 2.15313 8.92222 2.21953 8.95632 2.29566C8.99041 2.3718 9.00491 2.45526 8.9985 2.53843C8.99209 2.62161 8.96497 2.70186 8.91961 2.77187C8.87425 2.84188 8.81209 2.89943 8.7388 2.93928C8.66552 2.97912 8.58342 3 8.5 3H3C2.73478 3 2.48043 3.10536 2.29289 3.2929C2.10536 3.48043 2 3.73479 2 4C2 4.26522 2.10536 4.51957 2.29289 4.70711C2.48043 4.89465 2.73478 5 3 5ZM14.5 9H6C5.73478 9 5.48043 9.10536 5.29289 9.2929C5.10536 9.48043 5 9.73479 5 10C5 10.2652 5.10536 10.5196 5.29289 10.7071C5.48043 10.8946 5.73478 11 6 11H14.5C14.5834 11 14.6655 11.0209 14.7388 11.0607C14.8121 11.1006 14.8742 11.1581 14.9196 11.2281C14.965 11.2982 14.9921 11.3784 14.9985 11.4616C15.0049 11.5447 14.9904 11.6282 14.9563 11.7043C14.9222 11.7805 14.8696 11.8469 14.8033 11.8975C14.737 11.9481 14.6591 11.9813 14.5766 11.9941C14.4942 12.0069 14.4099 11.9988 14.3313 11.9707C14.2528 11.9426 14.1826 11.8952 14.127 11.833C14.0398 11.7338 13.9338 11.6528 13.8151 11.5948C13.6965 11.5367 13.5675 11.5028 13.4356 11.4949C13.3037 11.487 13.1716 11.5053 13.0469 11.5487C12.9221 11.5922 12.8072 11.6599 12.7088 11.7481C12.6104 11.8362 12.5304 11.9429 12.4734 12.0621C12.4165 12.1813 12.3838 12.3106 12.3771 12.4426C12.3704 12.5745 12.3899 12.7064 12.4346 12.8308C12.4792 12.9551 12.548 13.0694 12.637 13.167C12.9146 13.4772 13.2652 13.7132 13.6571 13.8536C14.049 13.9939 14.4698 14.0342 14.8812 13.9707C15.2926 13.9073 15.6817 13.7421 16.013 13.4901C16.3444 13.2382 16.6077 12.9075 16.7789 12.5281C16.95 12.1486 17.0238 11.7324 16.9934 11.3173C16.9629 10.9021 16.8293 10.5011 16.6047 10.1507C16.38 9.80022 16.0714 9.51143 15.7068 9.31049C15.3422 9.10955 14.9333 9.00283 14.517 9H14.5Z"
         />
</svg>
