<svg  id="connection-socket-male" width="13" height="11" viewBox="0 0 13 11" xmlns="http://www.w3.org/2000/svg">
    <path d="M12.4261 5.47106C12.3184 5.38427 12.1845 5.33643 12.0461 5.33529L10.6074 5.33603C10.3415 3.68812 8.89045 2.48476 7.14685 2.44656C7.11382 2.47959 6.38015 2.47085 5.72207 2.4612L5.72207 1.61893C5.72502 1.52644 5.70705 1.4345 5.66948 1.34998C5.63192 1.26545 5.57573 1.19053 5.50513 1.13079C5.48345 1.11575 5.46082 1.10212 5.43738 1.09C5.34354 1.02494 5.23338 0.987356 5.11929 0.981476C5.0052 0.975596 4.8917 1.00165 4.79154 1.05671C4.69138 1.11177 4.60853 1.19365 4.5523 1.29316C4.49606 1.39266 4.46868 1.50585 4.47322 1.62001L4.47219 3.60166L1.62221 3.60356C1.54021 3.60358 1.459 3.61974 1.38321 3.65113C1.30742 3.68253 1.23855 3.72853 1.18051 3.78653C1.12248 3.84452 1.07643 3.91336 1.04498 3.98913C1.01353 4.06489 0.997314 4.14609 0.997243 4.22809C0.997172 4.31009 1.01325 4.39129 1.04457 4.46704C1.07588 4.5428 1.12182 4.61163 1.17975 4.6696C1.23769 4.72757 1.30648 4.77356 1.38221 4.80492C1.45795 4.83629 1.53913 4.85243 1.62113 4.85241L4.47155 4.85095L4.47084 7.07716L1.61998 7.07819C1.45432 7.07828 1.2954 7.14417 1.1782 7.26137C1.061 7.37858 0.995104 7.53749 0.995019 7.70316C0.994933 7.86882 1.06066 8.02767 1.17775 8.14475C1.29483 8.26184 1.45367 8.32757 1.61934 8.32748L4.46976 8.32601L4.46918 10.3072C4.4691 10.3892 4.48519 10.4704 4.5165 10.5462C4.54782 10.6219 4.59375 10.6908 4.65169 10.7487C4.70962 10.8067 4.77842 10.8527 4.85415 10.8841C4.92988 10.9154 5.01106 10.9316 5.09306 10.9316C5.17506 10.9315 5.25628 10.9154 5.33206 10.884C5.40785 10.8526 5.47672 10.8066 5.53476 10.7486C5.59279 10.6906 5.63884 10.6218 5.67029 10.546C5.70174 10.4702 5.71796 10.389 5.71803 10.307L5.71846 9.46519L7.14323 9.47836C8.84601 9.47748 10.2571 8.2392 10.5794 6.5849L12.0454 6.58544C12.1776 6.59047 12.3078 6.55272 12.4169 6.4778C12.526 6.40288 12.608 6.2948 12.6507 6.16961C12.6935 6.04443 12.6947 5.90884 12.6542 5.78298C12.6138 5.65712 12.5338 5.54773 12.4261 5.47106Z"
          />
</svg>
