<svg id="connection-socket-female" width="9" height="11" viewBox="0 0 9 11" xmlns="http://www.w3.org/2000/svg">
    <path d="M8.24424 0.705238C8.22256 0.690197 8.19993 0.676569 8.1765 0.664441C8.08265 0.599382 7.97249 0.561802 7.8584 0.555922C7.74432 0.550041 7.63081 0.576093 7.53065 0.631153C7.43049 0.686212 7.34764 0.768095 7.29141 0.867603C7.23518 0.967111 7.20779 1.0803 7.21233 1.19445L7.21189 2.03628L5.78712 2.02312C4.08434 2.024 2.67327 3.26228 2.35097 4.91658L0.884925 4.91603C0.802782 4.91607 0.721435 4.93229 0.645528 4.96377C0.569621 4.99524 0.500642 5.04135 0.442528 5.09946C0.384414 5.15758 0.338303 5.22656 0.306829 5.30247C0.275355 5.37837 0.259134 5.45972 0.259092 5.54186C0.259049 5.62401 0.275187 5.70534 0.306582 5.78121C0.337978 5.85709 0.384018 5.92602 0.442072 5.98407C0.500127 6.04213 0.569058 6.08817 0.644933 6.11956C0.720807 6.15096 0.802138 6.16709 0.884281 6.16705L2.32339 6.16588C2.58838 7.81466 4.03991 9.01759 5.7835 9.05578C5.81653 9.02275 6.5502 9.03149 7.20829 9.04114L7.20829 9.88341C7.20827 9.96541 7.22441 10.0466 7.25578 10.1223C7.28714 10.1981 7.33313 10.2669 7.3911 10.3248C7.44908 10.3827 7.5179 10.4287 7.59366 10.46C7.66941 10.4913 7.75061 10.5074 7.83261 10.5073C7.91461 10.5072 7.99581 10.491 8.07157 10.4596C8.14734 10.4281 8.21618 10.3821 8.27417 10.324C8.33217 10.266 8.37817 10.1971 8.40956 10.1213C8.44096 10.0455 8.45712 9.96434 8.45714 9.88234L8.46161 1.19467C8.46458 1.10208 8.44657 1.01004 8.40892 0.92543C8.37128 0.840823 8.31498 0.764976 8.24424 0.705238Z"
          />
</svg>
