<svg width="22" height="16" viewBox="0 0 22 16" fill="none" xmlns="http://www.w3.org/2000/svg">
<path d="M4.35915 5.63794L4.65343 5.57212L4.7325 5.28111C4.87031 4.77398 5.05586 4.30423 5.2882 3.87051L4.84745 3.63441C5.0541 3.24865 5.29594 2.88752 5.57297 2.55104L5.95898 2.86884C6.27272 2.48777 6.63674 2.13909 7.05254 1.82308C7.46822 1.50717 7.90116 1.24927 8.35151 1.04787L8.1474 0.591433C8.54504 0.41361 8.95675 0.275885 9.38254 0.17826L9.49428 0.665613C9.97404 0.555611 10.4756 0.5 11 0.5C11.6446 0.5 12.249 0.578916 12.8152 0.734214L12.9475 0.252021C13.4578 0.391982 13.9428 0.590239 14.4023 0.846792L14.1586 1.28337C14.6732 1.57065 15.1569 1.93903 15.6094 2.39155C16.0619 2.84402 16.4302 3.32761 16.7174 3.84204L17.154 3.59833C17.4105 4.05783 17.6086 4.54269 17.7485 5.05288L17.2663 5.18506C17.4215 5.75117 17.5002 6.35544 17.5 6.99983L17.4998 7.44536L17.9424 7.49667C18.3092 7.53919 18.6492 7.62193 18.9644 7.74315L19.1439 7.27647C19.4393 7.39009 19.7181 7.53461 19.9802 7.71004L19.702 8.12554C19.9832 8.31378 20.2454 8.54418 20.4883 8.81906C20.731 9.09377 20.9278 9.38169 21.0811 9.68275L21.5267 9.45594C21.6695 9.73657 21.78 10.0296 21.8582 10.3349L21.3738 10.4589C21.4576 10.786 21.5002 11.1324 21.5 11.4997V11.5C21.5 11.8989 21.4508 12.2711 21.355 12.6184L21.837 12.7513C21.7467 13.0789 21.6188 13.3903 21.4534 13.6857L21.0171 13.4413C20.8407 13.7562 20.6138 14.054 20.3334 14.3344C20.0531 14.6148 19.7554 14.8416 19.4407 15.0179L19.685 15.4541C19.3897 15.6195 19.0784 15.7473 18.751 15.8376L18.6181 15.3555C18.2709 15.4512 17.899 15.5002 17.5003 15.5H17.5H15.3571V16H13.6429V15.5H9.35714V16H7.64286V15.5H5.5C5.00639 15.5 4.54354 15.4398 4.10961 15.3218L3.97842 15.8043C3.58001 15.696 3.2005 15.5426 2.83991 15.3443L3.08084 14.9062C2.68599 14.6891 2.31273 14.4104 1.96131 14.0673C1.61087 13.7251 1.32663 13.3599 1.10532 12.9723L0.671084 13.2201C0.46766 12.8638 0.310483 12.4873 0.199554 12.0909L0.681064 11.9561C0.561024 11.5271 0.499784 11.0675 0.500001 10.5752V10.575C0.500001 10.1517 0.545004 9.7481 0.633719 9.36322L0.146495 9.25092C0.226886 8.90215 0.340364 8.56535 0.48693 8.24052L0.942685 8.44615C1.10564 8.085 1.31459 7.73805 1.57107 7.40517C1.82614 7.07413 2.10691 6.78846 2.41303 6.54627L2.10281 6.15415C2.38105 5.93401 2.6798 5.74498 2.99905 5.58706L3.22074 6.03523C3.5697 5.86262 3.94864 5.72976 4.35915 5.63794Z" stroke="#8AA39B" stroke-dasharray="5 2"/>
</svg>
